# xmcd CD database file generated by OrangeCD 5.1
#
# Track frame offsets:
#	150
#	17940
#	61370
#	73358
#	86495
#	97490
#	109172
#	123804
#	134584
#	157032
#	168634
#	180716
#
# Disc length: 2562 seconds
#
# Revision: 2
# Processed by: cddbd v1.5PL3 Copyright (c) Steve Scherf et al.
# Submitted via: OrangeCD 5.1
#
DISCID=b50a000c
DTITLE=B.B. King - Spotlight On Lucille
DYEAR=1991
DGENRE=Blues
TTITLE0=Slidin' And Glidin'
TTITLE1=Blues With B.B.
TTITLE2=King Of Guitar
TTITLE3=Jump With B.B.
TTITLE4=38th Street Blues
TTITLE5=Feedin' The Rock
TTITLE6=Just Like A Woman
TTITLE7=Step It Up
TTITLE8=Calypso Jazz
TTITLE9=Easy Listening (Blues)
TTITLE10=Shoutin' The Blues
TTITLE11=Powerhouse
EXTD=
EXTT0=
EXTT1=
EXTT2=
EXTT3=
EXTT4=
EXTT5=
EXTT6=
EXTT7=
EXTT8=
EXTT9=
EXTT10=
EXTT11=
PLAYORDER=
